<svg font-family="-apple-system-body, ui-sans-serif, -apple-system, system-ui, Segoe UI, Helvetica, Apple Color Emoji, Arial, sans-serif, Segoe UI Emoji, Segoe UI Symbol" font-weight="400" data-d-component="svg" fill="currentColor" height="260" style="color:rgb(255, 255, 255)" viewBox="0 0 820 260" width="100%" xmlns="http://www.w3.org/2000/svg"><rect x="30" y="90" width="140" height="60" rx="10" fill="none" stroke="currentColor" stroke-width="2"/><text x="100" y="124" text-anchor="middle" font-size="16">Builder</text><line x1="170" y1="120" x2="250" y2="120" stroke="currentColor" stroke-width="2"/><polygon points="250,120 238,114 238,126" fill="currentColor"/><rect x="250" y="90" width="180" height="60" rx="10" fill="none" stroke="currentColor" stroke-width="2"/><text x="340" y="114" text-anchor="middle" font-size="15">JSON Canonique</text><text x="340" y="132" text-anchor="middle" font-size="12">(source unique)</text><line x1="430" y1="120" x2="520" y2="120" stroke="currentColor" stroke-width="2"/><polygon points="520,120 508,114 508,126" fill="currentColor"/><rect x="520" y="90" width="170" height="60" rx="10" fill="none" stroke="currentColor" stroke-width="2"/><text x="605" y="114" text-anchor="middle" font-size="15">Code Generator</text><text x="605" y="132" text-anchor="middle" font-size="12">Templates</text><line x1="690" y1="120" x2="790" y2="120" stroke="currentColor" stroke-width="2"/><polygon points="790,120 778,114 778,126" fill="currentColor"/><rect x="690" y="40" width="110" height="44" rx="10" fill="none" stroke="currentColor" stroke-width="2"/><text x="745" y="67" text-anchor="middle" font-size="15">React</text><rect x="690" y="170" width="110" height="44" rx="10" fill="none" stroke="currentColor" stroke-width="2"/><text x="745" y="197" text-anchor="middle" font-size="15">CMS</text></svg>